<?xml version="1.0" encoding="UTF-8" standalone="no"?>
<!DOCTYPE svg PUBLIC "-//W3C//DTD SVG 1.1//EN" "http://www.w3.org/Graphics/SVG/1.1/DTD/svg11.dtd">
<svg width="100%" height="100%" viewBox="0 0 24 24" version="1.1" xmlns="http://www.w3.org/2000/svg" xmlns:xlink="http://www.w3.org/1999/xlink" xml:space="preserve" xmlns:serif="http://www.serif.com/" style="fill-rule:evenodd;clip-rule:evenodd;">
    <path d="M23,5C23,2.792 21.208,1 19,1L5,1C2.792,1 1,2.792 1,5L1,19C1,21.208 2.792,23 5,23L19,23C21.208,23 23,21.208 23,19L23,5Z" style="fill:none;stroke:black;stroke-opacity:0.6;stroke-width:1px;"/>
    <g>
        <g transform="matrix(1,0,0,1,1.58982,15.824)">
            <text x="0px" y="0px" style="font-family:'ArialMT', 'Arial', sans-serif;font-size:10px;">P</text>
        </g>
        <g transform="matrix(1,0,0,1,7.98657,15.1299)">
            <text x="0px" y="0px" style="font-family:'Arial-BoldMT', 'Arial', sans-serif;font-weight:700;font-size:7px;">Y</text>
        </g>
        <g transform="matrix(1,0,0,1,11.7418,15.7442)">
            <text x="0px" y="0px" style="font-family:'ArialMT', 'Arial', sans-serif;font-size:10px;">T</text>
        </g>
        <g transform="matrix(1,0,0,1,16.9657,14.8922)">
            <text x="0px" y="0px" style="font-family:'Arial-BoldMT', 'Arial', sans-serif;font-weight:700;font-size:7px;">C</text>
        </g>
    </g>
    <g opacity="0.5">
        <g transform="matrix(1,0,0,1,-0.628602,-0.658776)">
            <circle cx="5" cy="5" r="1"/>
        </g>
        <g transform="matrix(1,0,0,1,0.493591,1.3358)">
            <circle cx="19" cy="19" r="1"/>
        </g>
    </g>
    <path d="M3,18L21,18" style="fill:none;fill-rule:nonzero;stroke:black;stroke-opacity:0.7;stroke-width:0.5px;"/>
</svg>
